<svg xmlns="http://www.w3.org/2000/svg" xml:space="preserve" id="Layer_1" x="0" y="0" style="enable-background:new 0 0 100 100" version="1.1" viewBox="0 0 100 100"><style>.st1{fill:#fbf49c;stroke:#fbb040;stroke-width:2;stroke-miterlimit:10}</style><path d="M50 13.19c0 .31 11.96 24.23 11.96 24.23s26.61 3.94 26.74 3.89c.13-.06-19.35 18.86-19.35 18.86s4.78 26.71 4.57 26.63C73.81 86.91 50 74.23 50 74.23S25.88 87.07 26.08 86.81s4.57-26.63 4.57-26.63S11.17 41.27 11.3 41.31s26.74-3.89 26.74-3.89S50 12.88 50 13.19z" style="fill:#fff08b;stroke:#ffdd74;stroke-width:2;stroke-miterlimit:10"/><circle cx="39.1" cy="48.87" r="1.89" class="st1"/><path d="M64.87 59.35c0 3.43-6.66 6.21-14.87 6.21s-14.87-2.78-14.87-6.21 29.74-3.43 29.74 0z" style="fill:#fbf49c;stroke:#fbb040;stroke-miterlimit:10"/><circle cx="60.27" cy="48.87" r="1.89" class="st1"/></svg>